<svg width="24" height="24" viewBox="0 0 24 24" fill="none" xmlns="http://www.w3.org/2000/svg">
    <path
        d="M5 21C4.45 21 3.979 20.804 3.587 20.412C3.195 20.02 2.99934 19.5493 3 19V5.00001C3 4.45001 3.196 3.97901 3.588 3.58701C3.98 3.19501 4.45067 2.99934 5 3.00001H13.925L11.925 5.00001H5V19H19V12.05L21 10.05V19C21 19.55 20.804 20.021 20.412 20.413C20.02 20.805 19.5493 21.0007 19 21H5ZM9 15V10.75L18.175 1.57501C18.375 1.37501 18.6 1.22501 18.85 1.12501C19.1 1.02501 19.35 0.975006 19.6 0.975006C19.8667 0.975006 20.121 1.02501 20.363 1.12501C20.605 1.22501 20.8257 1.37501 21.025 1.57501L22.425 3.00001C22.6083 3.20001 22.75 3.42101 22.85 3.66301C22.95 3.90501 23 4.15067 23 4.40001C23 4.65001 22.954 4.89601 22.862 5.13801C22.77 5.38001 22.6243 5.60067 22.425 5.80001L13.25 15H9ZM11 13H12.4L18.2 7.20001L17.5 6.50001L16.775 5.80001L11 11.575V13Z"
        fill="#373F40"
        fill-opacity='.8'
    />

</svg>
    